<svg width="52" height="30" viewBox="0 0 52 30" fill="none" xmlns="http://www.w3.org/2000/svg">
<path d="M49.42 0H2.23C0.998405 0 0 0.998405 0 2.23V2.24C0 3.4716 0.998405 4.47 2.23 4.47H49.42C50.6516 4.47 51.65 3.4716 51.65 2.24V2.23C51.65 0.998405 50.6516 0 49.42 0Z" fill="#7F7F7F"/>
<path d="M49.42 12.7695H2.23C0.998405 12.7695 0 13.7679 0 14.9995V15.0095C0 16.2411 0.998405 17.2395 2.23 17.2395H49.42C50.6516 17.2395 51.65 16.2411 51.65 15.0095V14.9995C51.65 13.7679 50.6516 12.7695 49.42 12.7695Z" fill="#7F7F7F"/>
<path d="M49.42 25.5303H2.23C0.998405 25.5303 0 26.5287 0 27.7603V27.7703C0 29.0019 0.998405 30.0003 2.23 30.0003H49.42C50.6516 30.0003 51.65 29.0019 51.65 27.7703V27.7603C51.65 26.5287 50.6516 25.5303 49.42 25.5303Z" fill="#7F7F7F"/>
</svg>
