<svg width="17" height="17" viewBox="0 0 17 17" fill="none" xmlns="http://www.w3.org/2000/svg">
<path d="M8.19 1.94C9.38 1.94 10.34 2.9 10.34 4.09C10.34 5.28 9.38 6.24 8.19 6.24C7 6.24 6.04 5.28 6.04 4.09C6.04 2.9 7 1.94 8.19 1.94ZM8.19 11.15C11.23 11.15 14.43 12.64 14.43 13.3V14.43H1.94V13.3C1.94 12.64 5.14 11.15 8.18 11.15M8.19 0C5.93 0 4.1 1.83 4.1 4.09C4.1 6.35 5.93 8.18 8.19 8.18C10.45 8.18 12.28 6.35 12.28 4.09C12.28 1.83 10.45 0 8.19 0ZM8.19 9.21C5.46 9.21 0 10.58 0 13.3V16.37H16.38V13.3C16.38 10.58 10.92 9.21 8.19 9.21Z" fill="#2443DD"/>
</svg>
